<?xml version="1.0" encoding="UTF-8"?>
<!DOCTYPE svg PUBLIC "-//W3C//DTD SVG 1.1//EN" "http://www.w3.org/Graphics/SVG/1.1/DTD/svg11.dtd">
<!-- Creator: CorelDRAW -->
<svg xmlns="http://www.w3.org/2000/svg" xml:space="preserve" width="395px" height="299px" version="1.1" style="shape-rendering:geometricPrecision; text-rendering:geometricPrecision; image-rendering:optimizeQuality; fill-rule:evenodd; clip-rule:evenodd"
viewBox="0 0 395 299.2"
 xmlns:xlink="http://www.w3.org/1999/xlink"
 xmlns:xodm="http://www.corel.com/coreldraw/odm/2003">
 <defs>
  <style type="text/css">
   <![CDATA[
    .str0 {stroke:#FF9933;stroke-width:11.8;stroke-linecap:round;stroke-linejoin:round;stroke-miterlimit:22.9256}
    .fil1 {fill:none}
    .fil0 {fill:#FF9933;fill-rule:nonzero}
   ]]>
  </style>
 </defs>
 <g id="Слой_x0020_1">
  <metadata id="CorelCorpID_0Corel-Layer"/>
  <g>
   <path class="fil0" d="M55.37 12.65c-3.26,0 -5.91,-2.65 -5.91,-5.91 0,-3.26 2.65,-5.9 5.91,-5.9l0 11.81zm59.02 -11.81l0 11.81 -59.02 0 0 -11.81 59.02 0zm0 0c3.26,0 5.9,2.64 5.9,5.9 0,3.26 -2.64,5.91 -5.9,5.91l0 -11.81zm31.14 11.81c-3.26,0 -5.9,-2.65 -5.9,-5.91 0,-3.26 2.64,-5.9 5.9,-5.9l0 11.81zm103.81 -11.81l0 11.81 -103.81 0 0 -11.81 103.81 0zm0 0c3.26,0 5.9,2.64 5.9,5.9 0,3.26 -2.64,5.91 -5.9,5.91l0 -11.81zm31.14 11.81c-3.26,0 -5.9,-2.65 -5.9,-5.91 0,-3.26 2.64,-5.9 5.9,-5.9l0 11.81zm59.03 0l-59.03 0 0 -11.81 59.03 0 0 0 0 11.81zm0 -11.81c3.26,0 5.9,2.64 5.9,5.9 0,3.26 -2.64,5.91 -5.9,5.91l0 -11.81zm38.95 16.08l-7.95 8.74 -1.72 -1.64 -1.58 -1.38 -1.66 -1.3 -1.71 -1.22 -1.77 -1.14 -1.83 -1.05 -1.88 -0.97 -1.93 -0.88 -1.98 -0.78 -2.02 -0.69 -2.06 -0.58 -2.1 -0.49 -2.14 -0.39 -2.18 -0.28 -2.2 -0.17 -2.24 -0.05 0 -11.81 2.84 0.07 2.8 0.22 2.77 0.35 2.73 0.49 2.68 0.63 2.62 0.75 2.58 0.87 2.52 1 2.45 1.11 2.39 1.23 2.32 1.34 2.25 1.44 2.17 1.55 2.09 1.65 2.02 1.74 1.72 1.64zm0 0c2.41,2.2 2.58,5.93 0.39,8.34 -2.19,2.41 -5.92,2.59 -8.34,0.4l7.95 -8.74zm-8.07 8.63c-2.3,-2.3 -2.3,-6.04 0,-8.35 2.31,-2.3 6.05,-2.3 8.35,0l-8.35 8.35zm24.55 30.72l-11.81 0 0 0 -0.06 -2.24 -0.16 -2.2 -0.28 -2.18 -0.39 -2.14 -0.49 -2.1 -0.59 -2.07 -0.68 -2.01 -0.78 -1.98 -0.88 -1.93 -0.97 -1.88 -1.05 -1.83 -1.14 -1.77 -1.22 -1.71 -1.3 -1.66 -1.38 -1.58 -1.37 -1.44 8.35 -8.35 1.76 1.84 1.74 2.02 1.65 2.09 1.54 2.17 1.45 2.25 1.34 2.32 1.23 2.39 1.11 2.45 1 2.52 0.87 2.57 0.75 2.63 0.63 2.68 0.49 2.73 0.35 2.77 0.22 2.8 0.07 2.84 0 0zm0 0c0,3.26 -2.65,5.9 -5.9,5.9 -3.26,0 -5.91,-2.64 -5.91,-5.9l11.81 0zm0 59.03l-11.81 0 0 -59.03 11.81 0 0 59.03zm0 0c0,3.25 -2.65,5.9 -5.9,5.9 -3.26,0 -5.91,-2.65 -5.91,-5.9l11.81 0zm-11.81 70.29c0,-3.26 2.65,-5.9 5.91,-5.9 3.25,0 5.9,2.64 5.9,5.9l-11.81 0zm0 59.03l0 -59.03 11.81 0 0 59.03 0 0 -11.81 0zm11.81 0c0,3.26 -2.65,5.9 -5.9,5.9 -3.26,0 -5.91,-2.64 -5.91,-5.9l11.81 0zm-16.28 39.15l-8.35 -8.35 0 0 1.45 -1.52 1.38 -1.58 1.3 -1.66 1.22 -1.71 1.14 -1.77 1.05 -1.83 0.97 -1.88 0.88 -1.93 0.78 -1.98 0.68 -2.02 0.59 -2.06 0.49 -2.1 0.39 -2.14 0.28 -2.18 0.16 -2.21 0.06 -2.23 11.81 0 -0.07 2.84 -0.22 2.8 -0.35 2.77 -0.49 2.73 -0.63 2.67 -0.75 2.63 -0.87 2.58 -1 2.51 -1.11 2.46 -1.23 2.39 -1.34 2.32 -1.45 2.25 -1.54 2.17 -1.65 2.09 -1.74 2.01 -1.84 1.93 0 0zm0 0c-2.3,2.3 -6.04,2.3 -8.35,0 -2.3,-2.3 -2.3,-6.04 0,-8.35l8.35 8.35zm-8.43 -8.27c2.3,-2.3 6.04,-2.3 8.34,0 2.31,2.31 2.31,6.05 0.01,8.35l-8.35 -8.35zm-30.72 24.55l0 -11.81 0 0 2.24 -0.06 2.2 -0.17 2.18 -0.27 2.14 -0.39 2.1 -0.49 2.06 -0.59 2.02 -0.68 1.98 -0.79 1.93 -0.87 1.88 -0.97 1.83 -1.05 1.77 -1.14 1.71 -1.22 1.66 -1.3 1.58 -1.38 1.44 -1.37 8.35 8.35 -1.84 1.76 -2.02 1.74 -2.09 1.65 -2.17 1.54 -2.25 1.45 -2.32 1.34 -2.39 1.22 -2.45 1.12 -2.52 1 -2.58 0.87 -2.62 0.75 -2.68 0.62 -2.73 0.49 -2.77 0.36 -2.8 0.21 -2.84 0.08 0 0zm0 0c-3.26,0 -5.91,-2.65 -5.91,-5.91 0,-3.26 2.65,-5.9 5.91,-5.9l0 11.81zm-59.03 0l0 -11.81 59.03 0 0 11.81 -59.03 0zm0 0c-3.26,0 -5.9,-2.65 -5.9,-5.91 0,-3.26 2.64,-5.9 5.9,-5.9l0 11.81zm-31.14 -11.81c3.26,0 5.9,2.64 5.9,5.9 0,3.26 -2.64,5.91 -5.9,5.91l0 -11.81zm-103.81 11.81l0 -11.81 103.81 0 0 11.81 -103.81 0zm0 0c-3.26,0 -5.9,-2.65 -5.9,-5.91 0,-3.26 2.64,-5.9 5.9,-5.9l0 11.81zm-31.14 -11.81c3.26,0 5.9,2.64 5.9,5.9 0,3.26 -2.64,5.91 -5.9,5.91l0 -11.81zm-59.02 0l59.02 0 0 11.81 -59.02 0 0 0 0 -11.81zm0 11.81c-3.26,0 -5.91,-2.65 -5.91,-5.91 0,-3.26 2.65,-5.9 5.91,-5.9l0 11.81zm-38.95 -16.09l7.94 -8.73 1.72 1.64 1.59 1.38 1.65 1.3 1.71 1.22 1.77 1.14 1.83 1.05 1.88 0.97 1.93 0.87 1.98 0.79 2.02 0.68 2.06 0.59 2.11 0.49 2.14 0.39 2.17 0.27 2.21 0.17 2.24 0.06 0 11.81 -2.84 -0.08 -2.81 -0.21 -2.77 -0.36 -2.72 -0.49 -2.68 -0.62 -2.63 -0.75 -2.58 -0.87 -2.51 -1 -2.46 -1.12 -2.39 -1.22 -2.32 -1.34 -2.24 -1.45 -2.18 -1.54 -2.09 -1.65 -2.01 -1.74 -1.72 -1.65zm0 0c-2.41,-2.19 -2.59,-5.92 -0.4,-8.33 2.19,-2.42 5.93,-2.59 8.34,-0.4l-7.94 8.73zm8.06 -8.62c2.31,2.3 2.3,6.04 0,8.34 -2.3,2.31 -6.04,2.31 -8.35,0l8.35 -8.34zm-24.54 -30.72l11.8 0 0 0 0.06 2.23 0.17 2.21 0.28 2.18 0.38 2.14 0.49 2.1 0.59 2.06 0.69 2.02 0.78 1.98 0.87 1.93 0.97 1.88 1.06 1.83 1.13 1.77 1.23 1.71 1.29 1.66 1.38 1.58 1.37 1.44 -8.35 8.34 -1.75 -1.84 -1.75 -2.01 -1.64 -2.09 -1.55 -2.17 -1.45 -2.25 -1.33 -2.32 -1.23 -2.39 -1.12 -2.46 -0.99 -2.51 -0.88 -2.58 -0.75 -2.63 -0.62 -2.67 -0.49 -2.73 -0.36 -2.77 -0.21 -2.8 -0.07 -2.84 0 0zm0 0c0,-3.26 2.64,-5.91 5.9,-5.91 3.26,0 5.9,2.65 5.9,5.91l-11.8 0zm0 -59.03l11.8 0 0 59.03 -11.8 0 0 -59.03zm0 0c0,-3.26 2.64,-5.9 5.9,-5.9 3.26,0 5.9,2.64 5.9,5.9l-11.8 0zm11.8 -70.29c0,3.25 -2.64,5.9 -5.9,5.9 -3.26,0 -5.9,-2.65 -5.9,-5.9l11.8 0zm0 -59.03l0 59.03 -11.8 0 0 -59.03 0 0 11.8 0zm-11.8 0c0,-3.26 2.64,-5.9 5.9,-5.9 3.26,0 5.9,2.64 5.9,5.9l-11.8 0zm16.27 -39.15l8.35 8.35 0 0 -1.45 1.52 -1.38 1.58 -1.29 1.66 -1.23 1.71 -1.13 1.77 -1.06 1.83 -0.97 1.88 -0.87 1.93 -0.78 1.98 -0.69 2.01 -0.59 2.07 -0.49 2.1 -0.38 2.14 -0.28 2.18 -0.17 2.2 -0.06 2.24 -11.8 0 0.07 -2.84 0.21 -2.8 0.36 -2.77 0.49 -2.73 0.62 -2.68 0.75 -2.63 0.88 -2.57 0.99 -2.52 1.12 -2.45 1.23 -2.39 1.33 -2.32 1.45 -2.25 1.55 -2.17 1.64 -2.09 1.75 -2.02 1.83 -1.92 0 0zm0 0c2.31,-2.3 6.05,-2.31 8.35,0 2.3,2.3 2.31,6.04 0,8.35l-8.35 -8.35zm8.44 8.26c-2.31,2.31 -6.05,2.31 -8.35,0.01 -2.31,-2.31 -2.31,-6.05 0,-8.35l8.35 8.34zm30.72 -24.54l0 11.81 0 0 -2.24 0.05 -2.21 0.17 -2.17 0.28 -2.14 0.39 -2.11 0.49 -2.06 0.58 -2.02 0.69 -1.98 0.78 -1.93 0.88 -1.88 0.97 -1.83 1.05 -1.77 1.14 -1.71 1.22 -1.65 1.3 -1.59 1.38 -1.43 1.36 -8.35 -8.34 1.84 -1.76 2.01 -1.74 2.09 -1.65 2.18 -1.55 2.24 -1.44 2.32 -1.34 2.39 -1.23 2.46 -1.11 2.51 -1 2.58 -0.87 2.63 -0.75 2.68 -0.63 2.72 -0.49 2.77 -0.35 2.81 -0.22 2.84 -0.07 0 0zm0 0c3.26,0 5.9,2.64 5.9,5.9 0,3.26 -2.64,5.91 -5.9,5.91l0 -11.81z"/>
  </g>
  <polyline class="fil1 str0" points="197.44,6.74 197.44,30.43 187.46,39.52 146.47,39.52 138.18,49.27 138.18,250.92 146.93,261.59 247.7,261.59 257.19,251.4 257.19,118.94 267.66,107.22 389.04,107.22 "/>
  <line class="fil1 str0" x1="5.84" y1="105.92" x2="138.18" y2= "105.92" />
  <line class="fil1 str0" x1="5.84" y1="193.89" x2="138.18" y2= "193.89" />
  <line class="fil1 str0" x1="197.69" y1="261.59" x2="197.69" y2= "294.14" />
  <line class="fil1 str0" x1="257.19" y1="198.2" x2="389.04" y2= "198.2" />
 </g>
</svg>
