<?xml version="1.0" encoding="UTF-8"?>
<!DOCTYPE svg PUBLIC "-//W3C//DTD SVG 1.1//EN" "http://www.w3.org/Graphics/SVG/1.1/DTD/svg11.dtd">
<!-- Creator: CorelDRAW -->
<svg xmlns="http://www.w3.org/2000/svg" xml:space="preserve" width="936px" height="654px" version="1.1" style="shape-rendering:geometricPrecision; text-rendering:geometricPrecision; image-rendering:optimizeQuality; fill-rule:evenodd; clip-rule:evenodd"
viewBox="0 0 936 653.46"
 xmlns:xlink="http://www.w3.org/1999/xlink"
 xmlns:xodm="http://www.corel.com/coreldraw/odm/2003">
 <defs>
  <style type="text/css">
   <![CDATA[
    .fil0 {fill:#1434CB}
   ]]>
  </style>
 </defs>
 <g id="Слой_x0020_1">
  <metadata id="CorelCorpID_0Corel-Layer"/>
  <g id="_2292737650160">
   <path class="fil0" d="M753.45 272.58l18.98 88.7 -51.02 0c0.66,-2.65 6.42,-17.8 7.9,-22.07 2.56,-7.39 5.59,-14.83 8.01,-22.25 1.42,-4.35 15.37,-43.48 16.13,-44.38zm-126.97 173.25l64.59 -0.38c0,0 0.27,-0.6 0.27,-0.61l1.17 -3.29c2.49,-6.43 5.16,-16 7.84,-22.71 0.58,-1.46 1.01,-2.9 1.52,-4.42 0.36,-1.09 1.07,-3.52 1.74,-4.49l78.32 0c1.34,5.1 6.91,34.42 7.77,35.85l56.91 0.05 -49.65 -238.2c-16.9,-0.03 -33.95,0.1 -50.95,-0.04 -16.05,-0.12 -23.45,7.59 -29.43,21.59 -10.22,23.95 -20.15,48.18 -30.11,72.24 -9.95,24.04 -20.09,48 -30.01,72.04 -4.96,12.02 -10.02,24.01 -15.01,36.02 -3.06,7.36 -13.22,30.76 -14.97,36.35z"/>
   <path class="fil0" d="M87.71 215.32c15.19,2.65 53.83,13.6 65.15,23.26 8.73,7.45 10.24,20.57 13.06,31.14 9.36,35.09 18.06,70.75 27.47,105.75 3.13,11.65 6.08,23.43 9.07,35.12 1.69,6.6 7.62,30.56 9.27,35.24l64.67 0 99.67 -238.23 -64.66 0c-2.85,5.96 -5.41,13.68 -7.93,19.97l-23.94 60.6c-5.36,13.45 -10.6,26.95 -15.98,40.39l-11.95 30.18c-1.1,2.69 -2.71,7.87 -4.15,10.09l-25.63 -134.25c-2.13,-11.1 -5.16,-18.6 -15.83,-23.92 -6.04,-3.01 -10.27,-3.02 -16.82,-3.05l-100.28 -0.01 -1.19 7.72z"/>
   <path class="fil0" d="M465.68 384.42c-2.04,8.45 -3.74,17.36 -5.57,25.88 -0.48,2.24 -5.41,24.7 -5.41,26.34 37.55,14.02 82.11,18.88 120.34,4.63 16.05,-5.99 30.98,-15.77 41.12,-29.78 11.18,-15.46 16.22,-37.58 12.21,-56.26 -8.48,-39.42 -52.4,-49.71 -75.08,-66.73 -19.95,-14.96 -5.39,-31.87 17.74,-34.59 14.84,-1.74 32.08,1.03 46.36,5.79 4.42,1.48 8.58,3.46 12.94,4.86l10.76 -50.41c-9.88,-3.02 -17.59,-5.65 -27.85,-7.55 -29.88,-5.52 -63.22,-3.58 -90.51,10.29 -15.25,7.75 -28.37,19.48 -35.9,35.01 -8.34,17.23 -10.13,40.63 -0.18,57.56 19.96,33.99 73.73,41.72 78.31,63.83 1.99,9.64 -5.16,17.3 -13.13,21.34 -9.75,4.94 -19.65,5.46 -30.36,5.19 -19.71,-0.51 -38.31,-6.72 -55.79,-15.4z"/>
   <path class="fil0" d="M351.16 445.83l61.71 0 50.47 -238.22c-17.87,-0.01 -36.89,-0.25 -54.62,-0.01 -6.88,0.1 -6.9,-1.22 -7.6,3.36 -0.86,5.65 -2.64,12.4 -3.87,18.11 -5.2,24.03 -10.19,48.13 -15.34,72.17 -5.16,24.04 -10.3,48.12 -15.34,72.18 -5.04,24.1 -10.02,48.41 -15.41,72.41z"/>
  </g>
 </g>
</svg>
